<?xml version="1.0" standalone="no"?>
<!DOCTYPE svg PUBLIC "-//W3C//DTD SVG 20010904//EN"
 "http://www.w3.org/TR/2001/REC-SVG-20010904/DTD/svg10.dtd">
<svg version="1.0" xmlns="http://www.w3.org/2000/svg"
 width="700.000000pt" height="700.000000pt" viewBox="0 0 700.000000 700.000000"
 preserveAspectRatio="xMidYMid meet">
<metadata>
Created by potrace 1.11, written by Peter Selinger 2001-2013
</metadata>
<g transform="translate(0.000000,700.000000) scale(0.100000,-0.100000)"
fill="#000000" stroke="none">
<path d="M2670 6990 c-25 -4 -65 -11 -90 -15 -25 -4 -81 -18 -125 -32 -243
-76 -466 -233 -615 -433 -22 -29 -41 -55 -44 -58 -3 -2 -49 -6 -103 -7 -338
-9 -639 -143 -868 -385 -177 -186 -274 -385 -326 -660 -13 -72 -20 -1781 -8
-1878 10 -76 58 -170 117 -229 88 -88 177 -122 308 -118 49 1 98 5 109 9 l21
7 0 -1253 c1 -689 3 -1280 4 -1312 14 -237 175 -463 403 -566 130 -58 46 -55
1652 -55 l1480 0 83 28 c118 40 196 89 284 177 61 63 85 96 122 171 62 129 72
196 74 473 1 126 4 231 7 234 2 3 179 6 392 7 214 2 395 5 403 7 8 3 35 10 60
17 259 73 448 283 493 546 18 107 16 2521 -2 2585 -7 25 -15 53 -16 62 -6 27
-58 143 -67 146 -4 2 -8 8 -8 14 0 16 -59 89 -116 143 -70 66 -145 111 -251
149 l-88 31 -400 3 c-219 2 -401 5 -404 7 -2 3 -4 95 -4 205 l0 200 60 57 c92
89 146 177 185 301 30 94 30 286 0 386 -44 143 -152 288 -277 371 -65 43 -183
91 -250 102 -87 14 -226 8 -299 -11 l-69 -19 -20 24 c-63 79 -88 105 -142 146
-132 100 -257 142 -420 141 -97 -1 -161 -11 -228 -37 -24 -9 -31 -7 -65 23
-146 130 -386 249 -567 281 -22 4 -49 10 -60 12 -36 8 -279 10 -325 3z m285
-275 c85 -10 240 -64 324 -113 94 -55 132 -84 222 -169 86 -82 125 -90 220
-45 85 41 147 54 225 47 83 -7 162 -37 223 -85 61 -48 84 -78 121 -154 59
-126 126 -150 242 -88 72 38 129 53 202 54 120 0 201 -32 283 -110 65 -63 100
-125 118 -208 31 -152 -12 -284 -128 -389 -127 -115 -304 -137 -487 -58 -75
32 -145 15 -182 -46 l-23 -36 -1 -610 c-1 -552 -2 -613 -18 -642 -38 -74 -144
-97 -204 -45 -48 42 -51 66 -53 438 0 192 -5 376 -10 408 -13 76 -54 180 -92
231 -64 86 -177 168 -270 196 -127 39 -221 53 -358 52 -95 0 -158 -27 -244
-102 -129 -114 -252 -161 -401 -156 -143 6 -222 38 -357 144 -103 82 -174 112
-267 113 -118 2 -194 -48 -267 -176 -57 -100 -173 -217 -263 -268 -84 -46
-185 -77 -280 -85 -42 -3 -91 -14 -112 -25 -74 -36 -71 -15 -73 -658 -1 -383
-5 -583 -12 -600 -48 -111 -216 -113 -262 -2 -13 32 -11 1814 2 1867 40 159
88 266 164 374 126 176 325 314 533 369 105 28 141 33 250 32 218 -3 215 -4
296 117 128 190 314 331 517 393 151 45 259 54 422 35z m1765 -1640 c41 0 91
2 110 6 19 5 37 4 40 -1 3 -4 5 -964 5 -2132 l-1 -2123 -234 -5 c-257 -5 -258
-6 -299 -67 -39 -60 -19 -142 46 -184 25 -17 51 -19 246 -19 119 0 217 -3 217
-6 0 -16 -58 -104 -94 -142 -45 -48 -98 -82 -166 -108 -42 -16 -155 -18 -1470
-19 -1056 -1 -1438 1 -1476 10 -78 18 -143 54 -199 109 -46 47 -95 120 -95
143 0 6 386 10 1025 10 l1024 0 40 26 c96 64 72 211 -41 242 -5 2 -474 3
-1043 4 l-1035 1 0 1864 0 1863 60 12 c128 25 251 82 366 170 109 82 189 173
254 286 20 36 38 55 50 55 10 0 52 -26 92 -59 40 -32 92 -70 116 -85 48 -30
180 -85 221 -93 14 -2 44 -8 66 -13 58 -14 270 -5 335 12 134 38 262 108 360
198 l45 42 100 -6 c210 -12 321 -73 361 -198 14 -45 17 -110 19 -428 2 -354 4
-379 24 -438 12 -35 32 -80 45 -100 32 -52 102 -114 159 -141 l47 -23 0 -1125
c0 -1030 1 -1128 17 -1160 45 -96 189 -97 239 -1 16 31 17 113 18 1159 l0
1126 52 27 c106 55 191 170 212 283 5 28 8 272 8 542 -1 319 3 492 9 495 6 2
19 2 30 -1 11 -4 54 -7 95 -8z m1229 -570 c30 -10 71 -27 90 -38 51 -29 127
-110 155 -165 22 -43 27 -59 41 -132 8 -37 7 -2408 -1 -2455 -27 -173 -155
-301 -339 -341 -28 -7 -734 -8 -740 -2 -5 5 -8 123 -6 231 l1 37 353 0 c388 0
396 1 441 63 21 28 21 32 23 1234 3 1307 6 1229 -52 1283 l-27 25 -369 3 -369
3 -1 22 c-1 38 -1 231 0 242 1 7 123 10 374 10 332 -1 378 -3 426 -20z m-258
-538 c1 -7 2 -470 3 -1029 1 -672 -2 -1019 -9 -1020 -5 0 -128 -2 -272 -2
-173 -1 -263 2 -264 9 -1 13 -1 1969 0 2017 l1 37 270 0 c198 -1 270 -4 271
-12z"/>
<path d="M1940 4252 c-36 -16 -60 -41 -75 -74 -13 -32 -14 -207 -14 -1360 0
-1298 1 -1324 20 -1365 23 -47 73 -77 127 -75 42 2 99 43 116 83 9 22 12 342
11 1362 0 1470 4 1368 -64 1414 -33 23 -89 29 -121 15z"/>
<path d="M3020 4242 c-19 -9 -43 -32 -54 -51 -19 -34 -20 -59 -20 -1365 -1
-1228 0 -1333 16 -1368 45 -101 195 -103 242 -4 14 31 16 163 16 1358 0 813
-4 1336 -10 1357 -22 77 -112 113 -190 73z"/>
<path d="M3851 813 c-52 -27 -74 -64 -74 -123 0 -44 4 -55 32 -84 73 -75 178
-59 226 34 16 32 12 93 -9 125 -38 57 -116 79 -175 48z"/>
</g>
</svg>
